<svg version="1.1" xmlns="http://www.w3.org/2000/svg" xmlns:xlink="http://www.w3.org/1999/xlink" width="844.71728515625" height="433">
    <defs />
    <g>
        <g transform="translate(-226,-6) scale(1,1)">
            <rect fill="#C0C0C0" stroke="none" x="243" y="127" width="178.8251953125" height="132" opacity="0.2" />
        </g>
        <g transform="translate(-226,-6) scale(1,1)">
            <rect fill="#ffffff" stroke="none" x="236" y="120" width="178.8251953125" height="132" />
        </g>
        <g transform="translate(-226,-6) scale(1,1)">
            <path fill="none" stroke="#000000" d="M 236 120 L 414.8251953125 120 L 414.8251953125 252 L 236 252 L 236 120 Z Z" stroke-miterlimit="10" />
        </g>
        <g transform="translate(-226,-6) scale(1,1)">
            <path fill="none" stroke="#000000" d="M 236 145 L 414.8251953125 145" stroke-miterlimit="10" />
        </g>
        <g transform="translate(-226,-6) scale(1,1)">
            <path fill="none" stroke="#000000" d="M 236 243 L 414.8251953125 243" stroke-miterlimit="10" />
        </g>
        <g transform="translate(-226,-6) scale(1,1)">
            <g>
                <path fill="none" stroke="none" />
                <text fill="#000000" stroke="none" font-family="Roboto" font-size="13px" font-style="normal" font-weight="bold" text-decoration="none" x="294.807373046875" y="137.875">KartModel</text>
            </g>
        </g>
        <g transform="translate(-226,-6) scale(1,1)">
            <g>
                <path fill="none" stroke="none" />
                <text fill="#000000" stroke="none" font-family="Roboto" font-size="13px" font-style="normal" font-weight="normal" text-decoration="none" x="241" y="161.068603515625">+id: string {id}</text>
            </g>
        </g>
        <g transform="translate(-226,-6) scale(1,1)">
            <g>
                <path fill="none" stroke="none" />
                <text fill="#000000" stroke="none" font-family="Roboto" font-size="13px" font-style="normal" font-weight="normal" text-decoration="none" x="241" y="175.6845703125">+name: stirng</text>
            </g>
        </g>
        <g transform="translate(-226,-6) scale(1,1)">
            <g>
                <path fill="none" stroke="none" />
                <text fill="#000000" stroke="none" font-family="Roboto" font-size="13px" font-style="normal" font-weight="normal" text-decoration="none" x="241" y="190.941650390625">+mass: float</text>
            </g>
        </g>
        <g transform="translate(-226,-6) scale(1,1)">
            <g>
                <path fill="none" stroke="none" />
                <text fill="#000000" stroke="none" font-family="Roboto" font-size="13px" font-style="normal" font-weight="normal" text-decoration="none" x="241" y="205.941650390625">+engine-max-speed: float</text>
            </g>
        </g>
        <g transform="translate(-226,-6) scale(1,1)">
            <g>
                <path fill="none" stroke="none" />
                <text fill="#000000" stroke="none" font-family="Roboto" font-size="13px" font-style="normal" font-weight="normal" text-decoration="none" x="241" y="220.941650390625">+acceleration-efficiency: float</text>
            </g>
        </g>
        <g transform="translate(-226,-6) scale(1,1)">
            <g>
                <path fill="none" stroke="none" />
                <text fill="#000000" stroke="none" font-family="Roboto" font-size="13px" font-style="normal" font-weight="normal" text-decoration="none" x="241" y="235.941650390625">+nitro-consumption: float</text>
            </g>
        </g>
        <g transform="translate(-226,-6) scale(1,1)">
            <rect fill="#C0C0C0" stroke="none" x="433" y="127" width="123.638671875" height="132" opacity="0.2" />
        </g>
        <g transform="translate(-226,-6) scale(1,1)">
            <rect fill="#ffffff" stroke="none" x="426" y="120" width="123.638671875" height="132" />
        </g>
        <g transform="translate(-226,-6) scale(1,1)">
            <path fill="none" stroke="#000000" d="M 426 120 L 549.638671875 120 L 549.638671875 252 L 426 252 L 426 120 Z Z" stroke-miterlimit="10" />
        </g>
        <g transform="translate(-226,-6) scale(1,1)">
            <path fill="none" stroke="#000000" d="M 426 145 L 549.638671875 145" stroke-miterlimit="10" />
        </g>
        <g transform="translate(-226,-6) scale(1,1)">
            <path fill="none" stroke="#000000" d="M 426 243 L 549.638671875 243" stroke-miterlimit="10" />
        </g>
        <g transform="translate(-226,-6) scale(1,1)">
            <g>
                <path fill="none" stroke="none" />
                <text fill="#000000" stroke="none" font-family="Roboto" font-size="13px" font-style="normal" font-weight="bold" text-decoration="none" x="453.113525390625" y="137.875">TrackModel</text>
            </g>
        </g>
        <g transform="translate(-226,-6) scale(1,1)">
            <g>
                <path fill="none" stroke="none" />
                <text fill="#000000" stroke="none" font-family="Roboto" font-size="13px" font-style="normal" font-weight="normal" text-decoration="none" x="431" y="161.068603515625">+id: string {id}</text>
            </g>
        </g>
        <g transform="translate(-226,-6) scale(1,1)">
            <g>
                <path fill="none" stroke="none" />
                <text fill="#000000" stroke="none" font-family="Roboto" font-size="13px" font-style="normal" font-weight="normal" text-decoration="none" x="431" y="175.6845703125">+name: string</text>
            </g>
        </g>
        <g transform="translate(-226,-6) scale(1,1)">
            <g>
                <path fill="none" stroke="none" />
                <text fill="#000000" stroke="none" font-family="Roboto" font-size="13px" font-style="normal" font-weight="normal" text-decoration="none" x="431" y="190.875">+race-mode: bool</text>
            </g>
        </g>
        <g transform="translate(-226,-6) scale(1,1)">
            <g>
                <path fill="none" stroke="none" />
                <text fill="#000000" stroke="none" font-family="Roboto" font-size="13px" font-style="normal" font-weight="normal" text-decoration="none" x="431" y="205.875">+soccer-mode: bool</text>
            </g>
        </g>
        <g transform="translate(-226,-6) scale(1,1)">
            <g>
                <path fill="none" stroke="none" />
                <text fill="#000000" stroke="none" font-family="Roboto" font-size="13px" font-style="normal" font-weight="normal" text-decoration="none" x="431" y="220.875">+arena-mode: bool</text>
            </g>
        </g>
        <g transform="translate(-226,-6) scale(1,1)">
            <g>
                <path fill="none" stroke="none" />
                <text fill="#000000" stroke="none" font-family="Roboto" font-size="13px" font-style="normal" font-weight="normal" text-decoration="none" x="431" y="236.28125">+groups: string[0..*]</text>
            </g>
        </g>
        <g transform="translate(-226,-6) scale(1,1)">
            <rect fill="#C0C0C0" stroke="none" x="700" y="127" width="89.91357421875" height="44" opacity="0.2" />
        </g>
        <g transform="translate(-226,-6) scale(1,1)">
            <rect fill="#ffffff" stroke="none" x="693" y="120" width="89.91357421875" height="44" />
        </g>
        <g transform="translate(-226,-6) scale(1,1)">
            <path fill="none" stroke="#000000" d="M 693 120 L 782.91357421875 120 L 782.91357421875 164 L 693 164 L 693 120 Z Z" stroke-miterlimit="10" />
        </g>
        <g transform="translate(-226,-6) scale(1,1)">
            <path fill="none" stroke="#000000" d="M 693 145 L 782.91357421875 145" stroke-miterlimit="10" />
        </g>
        <g transform="translate(-226,-6) scale(1,1)">
            <path fill="none" stroke="#000000" d="M 693 155 L 782.91357421875 155" stroke-miterlimit="10" />
        </g>
        <g transform="translate(-226,-6) scale(1,1)">
            <g>
                <path fill="none" stroke="none" />
                <text fill="#000000" stroke="none" font-family="Roboto" font-size="13px" font-style="normal" font-weight="bold" text-decoration="none" x="699.81689453125" y="137.875">MusicLibrary</text>
            </g>
        </g>
        <g transform="translate(-226,-6) scale(1,1)">
            <rect fill="#C0C0C0" stroke="none" x="966" y="125" width="73.3017578125" height="44" opacity="0.2" />
        </g>
        <g transform="translate(-226,-6) scale(1,1)">
            <rect fill="#ffffff" stroke="none" x="959" y="118" width="73.3017578125" height="44" />
        </g>
        <g transform="translate(-226,-6) scale(1,1)">
            <path fill="none" stroke="#000000" d="M 959 118 L 1032.3017578125 118 L 1032.3017578125 162 L 959 162 L 959 118 Z Z" stroke-miterlimit="10" />
        </g>
        <g transform="translate(-226,-6) scale(1,1)">
            <path fill="none" stroke="#000000" d="M 959 143 L 1032.3017578125 143" stroke-miterlimit="10" />
        </g>
        <g transform="translate(-226,-6) scale(1,1)">
            <path fill="none" stroke="#000000" d="M 959 153 L 1032.3017578125 153" stroke-miterlimit="10" />
        </g>
        <g transform="translate(-226,-6) scale(1,1)">
            <g>
                <path fill="none" stroke="none" />
                <text fill="#000000" stroke="none" font-family="Roboto" font-size="13px" font-style="normal" font-weight="bold" text-decoration="none" x="965.66455078125" y="135.941650390625">SfxLibrary</text>
            </g>
        </g>
        <g transform="translate(-226,-6) scale(1,1)">
            <rect fill="#C0C0C0" stroke="none" x="499" y="274" width="154.5771484375" height="147" opacity="0.2" />
        </g>
        <g transform="translate(-226,-6) scale(1,1)">
            <rect fill="#ffffff" stroke="none" x="492" y="267" width="154.5771484375" height="147" />
        </g>
        <g transform="translate(-226,-6) scale(1,1)">
            <path fill="none" stroke="#000000" d="M 492 267 L 646.5771484375 267 L 646.5771484375 414 L 492 414 L 492 267 Z Z" stroke-miterlimit="10" />
        </g>
        <g transform="translate(-226,-6) scale(1,1)">
            <path fill="none" stroke="#000000" d="M 492 292 L 646.5771484375 292" stroke-miterlimit="10" />
        </g>
        <g transform="translate(-226,-6) scale(1,1)">
            <path fill="none" stroke="#000000" d="M 492 405 L 646.5771484375 405" stroke-miterlimit="10" />
        </g>
        <g transform="translate(-226,-6) scale(1,1)">
            <g>
                <path fill="none" stroke="none" />
                <text fill="#000000" stroke="none" font-family="Roboto" font-size="13px" font-style="normal" font-weight="bold" text-decoration="none" x="554.75244140625" y="284.62109375">Race</text>
            </g>
        </g>
        <g transform="translate(-226,-6) scale(1,1)">
            <g>
                <path fill="none" stroke="none" />
                <text fill="#000000" stroke="none" font-family="Roboto" font-size="13px" font-style="normal" font-weight="normal" text-decoration="none" x="497" y="308.068603515625">+id: int {id}</text>
            </g>
        </g>
        <g transform="translate(-226,-6) scale(1,1)">
            <g>
                <path fill="none" stroke="none" />
                <text fill="#000000" stroke="none" font-family="Roboto" font-size="13px" font-style="normal" font-weight="normal" text-decoration="none" x="497" y="322.875">+major-race-mode: string</text>
            </g>
        </g>
        <g transform="translate(-226,-6) scale(1,1)">
            <g>
                <path fill="none" stroke="none" />
                <text fill="#000000" stroke="none" font-family="Roboto" font-size="13px" font-style="normal" font-weight="normal" text-decoration="none" x="497" y="337.875">+minor-race-mode: string</text>
            </g>
        </g>
        <g transform="translate(-226,-6) scale(1,1)">
            <g>
                <path fill="none" stroke="none" />
                <text fill="#000000" stroke="none" font-family="Roboto" font-size="13px" font-style="normal" font-weight="normal" text-decoration="none" x="497" y="352.941650390625">+difficulty: string</text>
            </g>
        </g>
        <g transform="translate(-226,-6) scale(1,1)">
            <g>
                <path fill="none" stroke="none" />
                <text fill="#000000" stroke="none" font-family="Roboto" font-size="13px" font-style="normal" font-weight="normal" text-decoration="none" x="497" y="367.875">+clock-type: string</text>
            </g>
        </g>
        <g transform="translate(-226,-6) scale(1,1)">
            <g>
                <path fill="none" stroke="none" />
                <text fill="#000000" stroke="none" font-family="Roboto" font-size="13px" font-style="normal" font-weight="normal" text-decoration="none" x="497" y="382.941650390625">+time: float</text>
            </g>
        </g>
        <g transform="translate(-226,-6) scale(1,1)">
            <g>
                <path fill="none" stroke="none" />
                <text fill="#000000" stroke="none" font-family="Roboto" font-size="13px" font-style="normal" font-weight="normal" text-decoration="none" x="497" y="397.875">+track: TrackModel</text>
            </g>
        </g>
        <g transform="translate(-226,-6) scale(1,1)">
            <rect fill="#C0C0C0" stroke="none" x="596" y="127" width="91.84326171875" height="57" opacity="0.2" />
        </g>
        <g transform="translate(-226,-6) scale(1,1)">
            <rect fill="#ffffff" stroke="none" x="589" y="120" width="91.84326171875" height="57" />
        </g>
        <g transform="translate(-226,-6) scale(1,1)">
            <path fill="none" stroke="#000000" d="M 589 120 L 680.84326171875 120 L 680.84326171875 177 L 589 177 L 589 120 Z Z" stroke-miterlimit="10" />
        </g>
        <g transform="translate(-226,-6) scale(1,1)">
            <path fill="none" stroke="#000000" d="M 589 145 L 680.84326171875 145" stroke-miterlimit="10" />
        </g>
        <g transform="translate(-226,-6) scale(1,1)">
            <path fill="none" stroke="#000000" d="M 589 168 L 680.84326171875 168" stroke-miterlimit="10" />
        </g>
        <g transform="translate(-226,-6) scale(1,1)">
            <g>
                <path fill="none" stroke="none" />
                <text fill="#000000" stroke="none" font-family="Roboto" font-size="13px" font-style="normal" font-weight="bold" text-decoration="none" x="598.4638671875" y="137.6845703125">CurrentRace</text>
            </g>
        </g>
        <g transform="translate(-226,-6) scale(1,1)">
            <g>
                <path fill="none" stroke="none" />
                <text fill="#000000" stroke="none" font-family="Roboto" font-size="13px" font-style="normal" font-weight="normal" text-decoration="none" x="594" y="160.6845703125">+status: string</text>
            </g>
        </g>
        <g transform="translate(-226,-6) scale(1,1)">
            <path fill="none" stroke="#000000" d="M 600 177 L 600 267" stroke-miterlimit="10" />
        </g>
        <g transform="translate(-226,-6) scale(1,1)">
            <g>
                <path fill="none" stroke="none" />
                <text fill="#000000" stroke="none" font-family="Roboto" font-size="13px" font-style="normal" font-weight="normal" text-decoration="none" x="604.62060546875" y="190.6845703125">0..1</text>
            </g>
        </g>
        <g transform="translate(-226,-6) scale(1,1)">
            <g>
                <path fill="none" stroke="none" />
                <text fill="#000000" stroke="none" font-family="Roboto" font-size="13px" font-style="normal" font-weight="normal" text-decoration="none" x="606.62060546875" y="260.6845703125">0..1</text>
            </g>
        </g>
        <g transform="translate(-226,-6) scale(1,1)">
            <rect fill="#C0C0C0" stroke="none" x="941" y="274" width="126.71728515625" height="162" opacity="0.2" />
        </g>
        <g transform="translate(-226,-6) scale(1,1)">
            <rect fill="#ffffff" stroke="none" x="934" y="267" width="126.71728515625" height="162" />
        </g>
        <g transform="translate(-226,-6) scale(1,1)">
            <path fill="none" stroke="#000000" d="M 934 267 L 1060.71728515625 267 L 1060.71728515625 429 L 934 429 L 934 267 Z Z" stroke-miterlimit="10" />
        </g>
        <g transform="translate(-226,-6) scale(1,1)">
            <path fill="none" stroke="#000000" d="M 934 292 L 1060.71728515625 292" stroke-miterlimit="10" />
        </g>
        <g transform="translate(-226,-6) scale(1,1)">
            <path fill="none" stroke="#000000" d="M 934 420 L 1060.71728515625 420" stroke-miterlimit="10" />
        </g>
        <g transform="translate(-226,-6) scale(1,1)">
            <g>
                <path fill="none" stroke="none" />
                <text fill="#000000" stroke="none" font-family="Roboto" font-size="13px" font-style="normal" font-weight="bold" text-decoration="none" x="952.188720703125" y="284.941650390625">SfxLibraryEntry</text>
            </g>
        </g>
        <g transform="translate(-226,-6) scale(1,1)">
            <g>
                <path fill="none" stroke="none" />
                <text fill="#000000" stroke="none" font-family="Roboto" font-size="13px" font-style="normal" font-weight="normal" text-decoration="none" x="939" y="308.068603515625">+id: string {id}</text>
            </g>
        </g>
        <g transform="translate(-226,-6) scale(1,1)">
            <g>
                <path fill="none" stroke="none" />
                <text fill="#000000" stroke="none" font-family="Roboto" font-size="13px" font-style="normal" font-weight="normal" text-decoration="none" x="939" y="322.941650390625">+file: string</text>
            </g>
        </g>
        <g transform="translate(-226,-6) scale(1,1)">
            <g>
                <path fill="none" stroke="none" />
                <text fill="#000000" stroke="none" font-family="Roboto" font-size="13px" font-style="normal" font-weight="normal" text-decoration="none" x="939" y="337.875">+loaded: bool</text>
            </g>
        </g>
        <g transform="translate(-226,-6) scale(1,1)">
            <g>
                <path fill="none" stroke="none" />
                <text fill="#000000" stroke="none" font-family="Roboto" font-size="13px" font-style="normal" font-weight="normal" text-decoration="none" x="939" y="352.875">+positional: bool</text>
            </g>
        </g>
        <g transform="translate(-226,-6) scale(1,1)">
            <g>
                <path fill="none" stroke="none" />
                <text fill="#000000" stroke="none" font-family="Roboto" font-size="13px" font-style="normal" font-weight="normal" text-decoration="none" x="939" y="367.941650390625">+roll-off: float</text>
            </g>
        </g>
        <g transform="translate(-226,-6) scale(1,1)">
            <g>
                <path fill="none" stroke="none" />
                <text fill="#000000" stroke="none" font-family="Roboto" font-size="13px" font-style="normal" font-weight="normal" text-decoration="none" x="939" y="382.941650390625">+volume: float</text>
            </g>
        </g>
        <g transform="translate(-226,-6) scale(1,1)">
            <g>
                <path fill="none" stroke="none" />
                <text fill="#000000" stroke="none" font-family="Roboto" font-size="13px" font-style="normal" font-weight="normal" text-decoration="none" x="939" y="397.941650390625">+max-distance: float</text>
            </g>
        </g>
        <g transform="translate(-226,-6) scale(1,1)">
            <g>
                <path fill="none" stroke="none" />
                <text fill="#000000" stroke="none" font-family="Roboto" font-size="13px" font-style="normal" font-weight="normal" text-decoration="none" x="939" y="413.28125">+duration: float[0..1]</text>
            </g>
        </g>
        <g transform="translate(-226,-6) scale(1,1)">
            <rect fill="#C0C0C0" stroke="none" x="803" y="127" width="151.71435546875" height="72" opacity="0.2" />
        </g>
        <g transform="translate(-226,-6) scale(1,1)">
            <rect fill="#ffffff" stroke="none" x="796" y="120" width="151.71435546875" height="72" />
        </g>
        <g transform="translate(-226,-6) scale(1,1)">
            <path fill="none" stroke="#000000" d="M 796 120 L 947.71435546875 120 L 947.71435546875 192 L 796 192 L 796 120 Z Z" stroke-miterlimit="10" />
        </g>
        <g transform="translate(-226,-6) scale(1,1)">
            <path fill="none" stroke="#000000" d="M 796 145 L 947.71435546875 145" stroke-miterlimit="10" />
        </g>
        <g transform="translate(-226,-6) scale(1,1)">
            <path fill="none" stroke="#000000" d="M 796 183 L 947.71435546875 183" stroke-miterlimit="10" />
        </g>
        <g transform="translate(-226,-6) scale(1,1)">
            <g>
                <path fill="none" stroke="none" />
                <text fill="#000000" stroke="none" font-family="Roboto" font-size="13px" font-style="normal" font-weight="bold" text-decoration="none" x="862.224609375" y="137.941650390625">Sfx</text>
            </g>
        </g>
        <g transform="translate(-226,-6) scale(1,1)">
            <g>
                <path fill="none" stroke="none" />
                <text fill="#000000" stroke="none" font-family="Roboto" font-size="13px" font-style="normal" font-weight="normal" text-decoration="none" x="801" y="160.941650390625">+sfx-allowed: bool</text>
            </g>
        </g>
        <g transform="translate(-226,-6) scale(1,1)">
            <g>
                <path fill="none" stroke="none" />
                <text fill="#000000" stroke="none" font-family="Roboto" font-size="13px" font-style="normal" font-weight="normal" text-decoration="none" x="801" y="175.941650390625">+master-volume: float</text>
            </g>
        </g>
        <g transform="translate(-226,-6) scale(1,1)">
            <rect fill="#C0C0C0" stroke="none" x="665" y="274" width="159.92822265625" height="117" opacity="0.2" />
        </g>
        <g transform="translate(-226,-6) scale(1,1)">
            <rect fill="#ffffff" stroke="none" x="658" y="267" width="159.92822265625" height="117" />
        </g>
        <g transform="translate(-226,-6) scale(1,1)">
            <path fill="none" stroke="#000000" d="M 658 267 L 817.92822265625 267 L 817.92822265625 384 L 658 384 L 658 267 Z Z" stroke-miterlimit="10" />
        </g>
        <g transform="translate(-226,-6) scale(1,1)">
            <path fill="none" stroke="#000000" d="M 658 292 L 817.92822265625 292" stroke-miterlimit="10" />
        </g>
        <g transform="translate(-226,-6) scale(1,1)">
            <path fill="none" stroke="#000000" d="M 658 375 L 817.92822265625 375" stroke-miterlimit="10" />
        </g>
        <g transform="translate(-226,-6) scale(1,1)">
            <g>
                <path fill="none" stroke="none" />
                <text fill="#000000" stroke="none" font-family="Roboto" font-size="13px" font-style="normal" font-weight="bold" text-decoration="none" x="684.640625" y="284.875">MusicLibraryEntry</text>
            </g>
        </g>
        <g transform="translate(-226,-6) scale(1,1)">
            <g>
                <path fill="none" stroke="none" />
                <text fill="#000000" stroke="none" font-family="Roboto" font-size="13px" font-style="normal" font-weight="normal" text-decoration="none" x="663" y="308.068603515625">+id: string {id}</text>
            </g>
        </g>
        <g transform="translate(-226,-6) scale(1,1)">
            <g>
                <path fill="none" stroke="none" />
                <text fill="#000000" stroke="none" font-family="Roboto" font-size="13px" font-style="normal" font-weight="normal" text-decoration="none" x="663" y="322.875">+title: string</text>
            </g>
        </g>
        <g transform="translate(-226,-6) scale(1,1)">
            <g>
                <path fill="none" stroke="none" />
                <text fill="#000000" stroke="none" font-family="Roboto" font-size="13px" font-style="normal" font-weight="normal" text-decoration="none" x="663" y="337.6845703125">+composer: string</text>
            </g>
        </g>
        <g transform="translate(-226,-6) scale(1,1)">
            <g>
                <path fill="none" stroke="none" />
                <text fill="#000000" stroke="none" font-family="Roboto" font-size="13px" font-style="normal" font-weight="normal" text-decoration="none" x="663" y="352.941650390625">+filename: string</text>
            </g>
        </g>
        <g transform="translate(-226,-6) scale(1,1)">
            <g>
                <path fill="none" stroke="none" />
                <text fill="#000000" stroke="none" font-family="Roboto" font-size="13px" font-style="normal" font-weight="normal" text-decoration="none" x="663" y="368.28125">+fast-filename: string[0..1]</text>
            </g>
        </g>
        <g transform="translate(-226,-6) scale(1,1)">
            <path fill="#C0C0C0" stroke="none" d="M 623.29541015625 41 C 623.29541015625 31.0588736 631.35428375625 23 641.29541015625 23 C 651.23653655625 23 659.29541015625 31.0588736 659.29541015625 41 C 659.29541015625 50.9411264 651.23653655625 59 641.29541015625 59 C 631.35428375625 59 623.29541015625 50.9411264 623.29541015625 41 Z" opacity="0.2" />
        </g>
        <g transform="translate(-226,-6) scale(1,1)">
            <path fill="#ffffff" stroke="none" d="M 616.29541015625 34 C 616.29541015625 24.0588736 624.35428375625 16 634.29541015625 16 C 644.23653655625 16 652.29541015625 24.0588736 652.29541015625 34 C 652.29541015625 43.9411264 644.23653655625 52 634.29541015625 52 C 624.35428375625 52 616.29541015625 43.9411264 616.29541015625 34 Z" />
        </g>
        <g transform="translate(-226,-6) scale(1,1)">
            <path fill="none" stroke="#000000" d="M 616.29541015625 34 C 616.29541015625 24.0588736 624.35428375625 16 634.29541015625 16 C 644.23653655625 16 652.29541015625 24.0588736 652.29541015625 34 C 652.29541015625 43.9411264 644.23653655625 52 634.29541015625 52 C 624.35428375625 52 616.29541015625 43.9411264 616.29541015625 34 Z" stroke-miterlimit="10" />
        </g>
        <g transform="translate(-226,-6) scale(1,1)">
            <g>
                <path fill="none" stroke="none" />
                <text fill="#000000" stroke="none" font-family="Roboto" font-size="13px" font-style="normal" font-weight="bold" text-decoration="none" x="592.62939453125" y="69.875">DataExchange</text>
            </g>
        </g>
        <g transform="translate(-226,-6) scale(1,1)">
            <path fill="none" stroke="#000000" d="M 324 120 L 324 88 L 634 88 L 634 52" stroke-miterlimit="10" />
        </g>
        <g transform="translate(-226,-6) scale(1,1)">
            <path fill="none" stroke="#000000" d="M 488 120 L 488 88 L 634 88 L 634 52" stroke-miterlimit="10" />
        </g>
        <g transform="translate(-226,-6) scale(1,1)">
            <path fill="none" stroke="#000000" d="M 569 267 L 569 88 L 634 88 L 634 52" stroke-miterlimit="10" />
        </g>
        <g transform="translate(-226,-6) scale(1,1)">
            <path fill="none" stroke="#000000" d="M 634 120 L 634 52" stroke-miterlimit="10" />
        </g>
        <g transform="translate(-226,-6) scale(1,1)">
            <path fill="none" stroke="#000000" d="M 996 118 L 996 88 L 634 88 L 634 52" stroke-miterlimit="10" />
        </g>
        <g transform="translate(-226,-6) scale(1,1)">
            <path fill="none" stroke="#000000" d="M 737 120 L 737 88 L 634 88 L 634 52" stroke-miterlimit="10" />
        </g>
        <g transform="translate(-226,-6) scale(1,1)">
            <path fill="none" stroke="#000000" d="M 872 120 L 872 88 L 634 88 L 634 52" stroke-miterlimit="10" />
        </g>
        <g transform="translate(-226,-6) scale(1,1)">
            <path fill="none" stroke="#000000" d="M 737 164 L 737 267" stroke-miterlimit="10" />
        </g>
        <g transform="translate(-226,-6) scale(1,1)">
            <g>
                <path fill="none" stroke="none" />
                <text fill="#000000" stroke="none" font-family="Roboto" font-size="13px" font-style="normal" font-weight="normal" text-decoration="none" x="742.5" y="177.643310546875">1</text>
            </g>
        </g>
        <g transform="translate(-226,-6) scale(1,1)">
            <g>
                <path fill="none" stroke="none" />
                <text fill="#000000" stroke="none" font-family="Roboto" font-size="13px" font-style="normal" font-weight="normal" text-decoration="none" x="745.5" y="259.6845703125">0..*</text>
            </g>
        </g>
        <g transform="translate(-226,-6) scale(1,1)">
            <path fill="none" stroke="#000000" d="M 996 162 L 996 267" stroke-miterlimit="10" />
        </g>
        <g transform="translate(-226,-6) scale(1,1)">
            <g>
                <path fill="none" stroke="none" />
                <text fill="#000000" stroke="none" font-family="Roboto" font-size="13px" font-style="normal" font-weight="normal" text-decoration="none" x="1001.5" y="175.643310546875">1</text>
            </g>
        </g>
        <g transform="translate(-226,-6) scale(1,1)">
            <g>
                <path fill="none" stroke="none" />
                <text fill="#000000" stroke="none" font-family="Roboto" font-size="13px" font-style="normal" font-weight="normal" text-decoration="none" x="1004.5" y="258.6845703125">0..*</text>
            </g>
        </g>
    </g>
</svg>
